# xmcd
#
# Track frame offsets:
#	150
#	15760
#	30380
#	43377
#	58222
#	74932
#	92160
#	117065
#	133895
#	149832
#	171062
#	187950
#	206682
#	227705
#	244487
#
# Disc length: 3468 seconds
#
# Revision: 1
# Processed by: cddbd v1.5.1PL0 Copyright (c) Steve Scherf et al.
# Submitted via: audiograbber 1.83.01
#
DISCID=e40d8a0f
DTITLE=Various Artist - Dance Boy.3
DYEAR=1900
DGENRE=Dance
TTITLE0=Toni Cottura - Da Party Boom
TTITLE1=Copernico - I Believe
TTITLE2=Los Chicos Feat. Humberto - Tic Tic Tac
TTITLE3=Antares - Ride On A Meteorite
TTITLE4=Big Bass - Badda Bing Badda Boom
TTITLE5=DBP - Everybody Come On
TTITLE6=Patricia - Club Mambo
TTITLE7=Wienna - In The Name Of Love
TTITLE8=Red Hardin - 1-2-3 Maria E.P.
TTITLE9=DBP - Come On And Dance
TTITLE10=S-Sense - Hallo
TTITLE11=D.J. Miko - Hot Stuff
TTITLE12=Miss Blondie - Desire
TTITLE13=Jungle Style - Check Check Mix Your Body
TTITLE14=D-Anne - I Say A Little Prayer
EXTD=
EXTT0=
EXTT1=
EXTT2=
EXTT3=
EXTT4=
EXTT5=
EXTT6=
EXTT7=
EXTT8=
EXTT9=
EXTT10=
EXTT11=
EXTT12=
EXTT13=
EXTT14=
PLAYORDER=
